<?xml version="1.0" standalone="no"?>
<!DOCTYPE svg PUBLIC "-//W3C//DTD SVG 20010904//EN"
 "http://www.w3.org/TR/2001/REC-SVG-20010904/DTD/svg10.dtd">
<svg version="1.0" xmlns="http://www.w3.org/2000/svg"
 width="512.000000pt" height="512.000000pt" viewBox="0 0 512.000000 512.000000"
 preserveAspectRatio="xMidYMid meet">
<metadata>
Created by potrace 1.11, written by Peter Selinger 2001-2013
</metadata>
<g transform="translate(0.000000,512.000000) scale(0.100000,-0.100000)"
fill="#000000" stroke="none">
<path d="M475 5110 c-3 -5 -16 -10 -28 -10 -48 -1 -195 -67 -205 -92 -2 -4 -8
-8 -13 -8 -20 0 -101 -86 -137 -145 -40 -65 -72 -146 -72 -182 0 -12 -5 -25
-10 -28 -14 -9 -14 -4161 0 -4170 5 -3 10 -16 10 -28 0 -22 30 -117 40 -127 3
-3 14 -23 25 -44 23 -44 124 -156 142 -156 6 0 13 -4 15 -8 11 -27 159 -92
210 -92 15 0 28 -4 28 -10 0 -14 4156 -14 4165 0 3 6 16 10 28 10 48 1 195 67
205 92 2 4 9 8 15 8 19 1 101 90 138 150 36 59 68 141 69 177 0 12 4 25 10 28
7 4 10 710 10 2086 0 1379 -3 2079 -10 2079 -5 0 -10 13 -10 28 0 71 -71 206
-149 283 -76 76 -211 148 -278 149 -12 0 -25 5 -28 10 -4 7 -710 10 -2085 10
-1375 0 -2081 -3 -2085 -10z m2027 -831 c47 -8 90 -17 94 -21 4 -5 20 -8 36
-8 15 0 36 -4 46 -9 9 -5 44 -17 77 -27 33 -10 67 -21 75 -25 74 -34 95 -45
98 -51 2 -5 12 -8 23 -8 10 0 19 -4 19 -8 0 -5 10 -14 23 -20 82 -39 267 -245
267 -297 0 -8 5 -15 10 -15 6 0 10 -8 10 -17 0 -10 7 -31 15 -47 8 -15 15 -35
15 -42 0 -8 4 -22 9 -32 47 -88 47 -465 0 -554 -5 -10 -9 -26 -9 -35 0 -10 -7
-27 -15 -37 -8 -11 -15 -28 -15 -38 0 -10 -4 -18 -10 -18 -5 0 -10 -5 -10 -10
0 -25 -78 -130 -142 -191 l-69 -66 33 -13 c55 -20 143 -64 146 -72 2 -4 10 -8
18 -8 8 0 14 -4 14 -9 0 -5 9 -13 21 -16 51 -17 269 -262 269 -305 0 -5 5 -10
10 -10 6 0 10 -4 10 -10 0 -5 11 -33 24 -62 34 -72 56 -143 56 -176 0 -16 5
-33 10 -38 14 -14 7 -322 -8 -388 -15 -63 -34 -118 -44 -130 -4 -6 -8 -17 -8
-26 0 -18 -78 -153 -92 -158 -4 -2 -8 -8 -8 -14 0 -6 -10 -19 -22 -29 -11 -11
-18 -19 -14 -19 4 0 -14 -20 -41 -45 -81 -76 -92 -85 -102 -85 -5 0 -11 -4
-13 -8 -5 -13 -136 -92 -152 -92 -8 0 -16 -3 -18 -7 -5 -12 -76 -43 -98 -43
-11 0 -20 -4 -20 -9 0 -5 -12 -11 -27 -14 -49 -10 -137 -33 -153 -40 -8 -3
-37 -8 -65 -12 -27 -3 -86 -9 -130 -14 -44 -5 -288 -10 -542 -10 l-463 -1 0
1730 0 1731 388 -4 c262 -3 415 -9 474 -18z"/>
<path d="M2128 3854 c-5 -4 -8 -243 -8 -532 l0 -524 133 5 c141 5 286 23 301
38 6 5 20 9 32 9 13 0 25 4 29 9 3 5 19 12 35 16 17 4 30 11 30 16 0 5 7 9 15
9 22 0 118 100 139 145 10 22 22 47 26 55 4 9 16 64 26 122 17 103 17 111 0
223 -10 63 -22 118 -27 121 -5 3 -9 12 -9 20 0 31 -104 164 -129 164 -4 0 -16
8 -27 18 -10 9 -46 26 -79 36 -33 10 -69 22 -80 27 -11 4 -40 11 -65 14 -76
10 -335 17 -342 9z"/>
<path d="M2120 1846 c0 -462 2 -545 14 -556 18 -14 326 -8 476 9 96 11 183 31
196 44 4 4 16 7 27 7 66 0 248 146 288 231 9 19 21 45 28 59 6 14 18 68 25
120 26 172 -16 323 -118 424 -28 28 -60 58 -71 66 -32 24 -129 70 -147 70 -9
0 -18 3 -20 8 -5 11 -131 42 -172 42 -19 0 -38 5 -41 10 -4 6 -97 10 -246 10
l-239 0 0 -544z"/>
</g>
</svg>
